<?xml version="1.0" encoding="utf-8"?>
<!-- Generator: Adobe Illustrator 26.5.0, SVG Export Plug-In . SVG Version: 6.00 Build 0)  -->
<svg version="1.1" id="Layer_2_00000109008149117395785900000003656995322680600448_"
	 xmlns="http://www.w3.org/2000/svg" xmlns:xlink="http://www.w3.org/1999/xlink" x="0px" y="0px" viewBox="0 0 129.1 140.2"
	 style="enable-background:new 0 0 129.1 140.2;" xml:space="preserve">
<style type="text/css">
	.st0{fill:#AAAAAA;}
</style>
<g id="Stroke">
	<path class="st0" d="M88.1,0c-0.6,0-2,0.1-3.4,0.2c-7.2,0.9-7.6,1.4-7.4,8.6c0.6,17.5-15.2,30.1-32.1,25.6
		c-2.9-0.8-4.2-0.1-5.8,2.2C28.2,52.4,17,68.1,5.7,83.9c-9.5,13.3-6.9,30.7,5.9,39.8c12.9,9.2,30.1,6.1,39.6-7.2
		C61.5,102.2,71.7,88,81.7,73.7c4.6-6.6,10.3-11.3,17.8-14.2c13.4-5.2,21.4-20.4,18.7-34.4C115.3,10.1,103.5,0.1,88.1,0z M91.5,9.8
		c0-6.2,0.2-6.4,6.3-4.1c9.9,3.8,16.5,13.4,16.8,24.5c0.2,10.8-6.6,21.6-16.7,25.4c-8.4,3.2-14.7,8.6-19.8,15.9
		c-9.1,13.1-18.6,26-27.7,39.1c-1.4,2.1-2.8,2.6-5.3,2.1C30,109.6,18.7,101.5,11,88.1c-1.1-1.9-1-3.2,0.3-5
		C19.6,71.6,27.9,60,36.1,48.3c1.6-2.3,2.8-3.1,5.9-2.1C66.5,54.1,91.5,35.5,91.5,9.8L91.5,9.8z M44.9,117.4
		c-8.2,8.7-21.6,9.8-31.1,2.6C4.4,113,1.4,99.8,7,90.4C17.6,103,30.3,112,44.9,117.4z M52.6,43.9c-2.4,0.1-5.5-0.2-8.5-1.2
		c-0.9-0.3-3,0.1-2.4-1.9c0.5-1.5,1.5-2.5,3.7-2.1c20.8,3.6,36.4-9.8,36.1-31c0-2.8,1.4-2.9,3.3-3.3c2.6-0.5,2.2,1.3,2.3,2.7
		C89.1,26.6,73.1,44,52.6,43.9L52.6,43.9z"/>
	<path class="st0" d="M28.3,140.2c10.2-0.3,19.2-4.2,26.3-12.3c1-1.2,2.6-2.5,0.9-4.1c-1.8-1.7-2.9,0.1-3.9,1.3
		c-10.3,11.9-28.1,14.4-40.2,5.8c-1.2-0.9-2.6-1.6-3.6,0c-1.1,1.7,0.2,2.7,1.5,3.6C14.9,138.3,21.1,140,28.3,140.2L28.3,140.2z"/>
	<path class="st0" d="M127.1,31.6c-2.2,0.4-2,2.1-2.1,3.5c-1.1,8.9-4.7,16.5-10.9,22.9c-3.5,3.6-7.7,6.3-12.4,8.1
		c-1.5,0.5-3.1,1.1-2.3,3.1c0.7,1.9,2.4,1.3,3.8,0.8c13.5-4.5,25.8-21.2,25.9-35.1C129.1,33.3,129.2,31.8,127.1,31.6z"/>
	<path class="st0" d="M57.9,115.5c0.1,0.8,0.4,1.4,1.2,1.8c0.9,0.4,1.8,0.2,2.4-0.5c3-4.1,6-8.3,8.9-12.4c0.6-0.9,0.5-1.9-0.3-2.7
		c-0.9-0.8-2-0.7-2.7,0.1c-3.2,4.3-6.2,8.7-9.3,13.1C57.9,115,57.9,115.3,57.9,115.5z"/>
	<path class="st0" d="M126.3,25.2c1.4-0.3,2.1-1.2,1.8-2.7c-1.2-4.5-3-8.7-5.8-12.5c-0.8-1-1.9-1.2-2.9-0.4
		c-0.9,0.7-1.1,1.7-0.4,2.7c2.3,3.6,4.1,7.4,5.2,11.6C124.4,24.7,125.2,25.2,126.3,25.2L126.3,25.2z"/>
	<path class="st0" d="M80.6,84c-0.3,0.2-0.9,0.3-1.2,0.7c-2.4,3.3-4.8,6.6-7.1,10c-0.6,0.9-0.2,2,0.7,2.6c1,0.6,2,0.4,2.7-0.5
		c2.3-3.2,4.8-6.4,6.9-9.8C83.6,85.5,82.7,84.3,80.6,84L80.6,84z"/>
	<path class="st0" d="M84.1,78.5c0.2,1.1,0.6,1.9,1.5,2.1c2.7,0.4,3-2.2,4.2-3.6c0.9-1,1.8-2.2,0.8-3.7c-0.5-0.8-1.5-1.2-2.3-0.6
		C86.3,74.2,85.1,76.4,84.1,78.5L84.1,78.5z"/>
</g>
<g id="Fill_00000069396942270156257960000001839862436807438743_">
	<path class="st0" d="M91.5,9.8c0-6.2,0.2-6.4,6.3-4.1c9.9,3.8,16.5,13.4,16.8,24.5c0.2,10.8-6.6,21.6-16.7,25.4
		c-8.4,3.2-14.7,8.6-19.8,15.9c-9.1,13.1-18.6,26-27.7,39.1c-1.4,2.1-2.8,2.6-5.3,2.1C30,109.6,18.7,101.5,11,88.1
		c-1.1-1.9-1-3.2,0.3-5C19.6,71.6,27.9,60,36.1,48.3c1.6-2.3,2.8-3.1,5.9-2.1C66.5,54.1,91.5,35.5,91.5,9.8L91.5,9.8z"/>
	<path class="st0" d="M52.6,43.9c-2.4,0.1-5.5-0.2-8.5-1.2c-0.9-0.3-3,0.1-2.4-1.9c0.5-1.5,1.5-2.5,3.7-2.1
		c20.8,3.6,36.4-9.8,36.1-31c0-2.8,1.4-2.9,3.3-3.3c2.6-0.5,2.2,1.3,2.3,2.7C89.1,26.6,73.1,44,52.6,43.9L52.6,43.9z"/>
	<path class="st0" d="M44.9,117.4c-8.2,8.7-21.6,9.8-31.1,2.6C4.4,113,1.4,99.8,7,90.4C17.6,103,30.3,112,44.9,117.4z"/>
</g>
</svg>
