<?xml version="1.0" encoding="utf-8"?>
<!-- Generator: Adobe Illustrator 26.5.0, SVG Export Plug-In . SVG Version: 6.00 Build 0)  -->
<svg version="1.1" id="Layer_2_00000003104231460740762400000000548668335800903095_"
	 xmlns="http://www.w3.org/2000/svg" xmlns:xlink="http://www.w3.org/1999/xlink" x="0px" y="0px" viewBox="0 0 129.3 186.4"
	 style="enable-background:new 0 0 129.3 186.4;" xml:space="preserve">
<style type="text/css">
	.st0{fill:#AAAAAA;}
</style>
<g id="Stroke">
	<path class="st0" d="M81.3,0c-6.4,0-12.8,0-19.1,0c-9.1,0-7.8,7.1-7.8,8.6c-0.1,13.4,0.5,26.7-0.3,40.1
		c-0.7,11.2-4.7,21.1-11.2,30.1C30.5,96.2,18,113.6,5.7,131c-6.4,9-7.6,18.7-2.8,28.7c4.7,9.8,12.7,15.3,23.6,15.9
		c10.6,0.7,18.9-3.8,25-12.4c10.1-14.1,20.2-28.2,30.2-42.5c4.7-6.7,10.4-11.4,18.1-14.4c16.2-6.3,23.9-26.2,15.8-42.2
		c-4.6-9.1-6.4-18.2-6.1-28.1c0.3-8.2,0.1-16.5,0-24.7c0-3.3,1-6.8-2.1-9.5c-0.5-0.5-2.2-1.7-6.2-1.7C94.6,0,88,0,81.3,0L81.3,0
		L81.3,0z M108.7,59.8c-1.8,0.3-3.4,0.6-4.9,0.8c-8.4,1.4-15.6,5.1-21.9,10.7c-1.5,1.4-2.1,2.8-2,4.9c0.8,9.9,4.8,18.2,11.8,25.2
		c0.8,0.8,1.7,1.6,2.7,2.6c-6.2,3.1-11,7.2-14.7,12.5c-9.5,13.5-19.2,26.8-28.6,40.3c-1.9,2.7-3.7,3.4-6.8,2.7
		c-14.3-3.3-25.2-11.1-32.7-23.6c-1.4-2.3-1.4-4,0.2-6.3C23.5,113.4,35,97.1,46.6,80.8c8-11.2,12.1-23.7,12-37.5
		c-0.1-11.4,0.1-22.7-0.1-34.1c0-2.7,0.8-3.3,3.4-3.3c10.6,0.1,21.2-0.1,31.9,0c3.7,0,8.6-1.6,10.9,0.6c2.4,2.4,0.6,7.3,0.8,11.2
		C106.2,31.7,103.3,45.9,108.7,59.8L108.7,59.8z M108.7,64.2c1.6-0.4,2.8,0.5,3.7,2.6c5.3,12.1,0.5,27.2-10.8,34.1
		c-1.7,1.1-2.9,1.2-4.6-0.2c-7.4-6.1-11.5-13.9-12.9-23.3c-0.3-1.7,0.4-2.8,1.6-3.9C92.2,68,99.7,64.8,108.7,64.2z M7.1,136.8
		c8.7,15,21.3,23.9,38,27.3c-7.9,8.6-20.9,10-30.4,3.5C4.9,160.8,1.6,148.3,7.1,136.8z"/>
	<path class="st0" d="M28.7,186.4c10-0.3,18.9-4.2,26-12.3c1.1-1.2,2.5-2.6,0.8-4.1c-1.8-1.6-2.8,0.2-3.9,1.4
		c-11.2,11.9-26.2,14.2-39.9,5.9c-1.3-0.8-2.7-1.9-3.9-0.1c-1.2,1.8,0.3,2.7,1.5,3.6C15,184.5,21.2,186.3,28.7,186.4z"/>
	<path class="st0" d="M127.4,77.8c-2.3,0.2-2.1,1.9-2.3,3.5c-1.1,9.3-5,17.1-11.7,23.6c-3.4,3.2-7.3,5.7-11.7,7.2
		c-1.5,0.5-3,1.2-2.2,3.1c0.7,1.7,2.1,1.3,3.5,0.8c14.5-4.7,25.4-20.1,26.3-35.4C129.4,79.3,129,78.1,127.4,77.8L127.4,77.8z"/>
	<path class="st0" d="M117.6,32.9c0-3,0-6,0-8.9c0-1.5-0.4-2.9-2.1-2.9c-1.7,0-2.2,1.4-2.2,2.9c0,6.2,0,12.4,0,18.6
		c0,1.6,0.3,3.2,2.3,3.1c1.8-0.1,2-1.6,2-3C117.6,39.4,117.6,36.2,117.6,32.9L117.6,32.9z"/>
	<path class="st0" d="M68.9,147.3c-1.1,0.1-1.7,0.8-2.3,1.7c-2.5,3.6-5,7.1-7.6,10.7c-0.9,1.2-1.5,2.6-0.1,3.6
		c1.4,1.1,2.5,0.1,3.4-1.1c2.6-3.7,5.2-7.3,7.8-11c0.6-0.8,1.2-1.6,0.6-2.7C70.3,147.7,69.7,147.4,68.9,147.3L68.9,147.3z"/>
	<path class="st0" d="M128.1,68.5c-1.1-4.3-2.9-8.2-5.4-11.9c-0.8-1.2-1.9-1.8-3.2-0.8c-1.1,0.8-1.1,1.9-0.4,3
		c2.2,3.4,3.8,7,4.9,10.8c0.4,1.4,1.3,2.2,2.8,1.7C128.3,70.8,128.3,69.7,128.1,68.5L128.1,68.5z"/>
	<path class="st0" d="M72.1,141.3c0,1.4,0.4,2.1,1.3,2.4c0.9,0.4,1.8,0.2,2.3-0.6c2.3-3.2,4.7-6.5,7-9.7c0.5-0.8,0.5-1.6-0.2-2.4
		c-0.7-0.8-1.8-1-2.3-0.4C76.9,133.8,74.6,137.8,72.1,141.3L72.1,141.3z"/>
	<path class="st0" d="M117.6,11.4c0-0.7,0-1.5,0-2.2c-0.1-1.3-0.8-2.2-2-2.3c-1.5-0.1-2.2,1.1-2.2,2.4c-0.1,1.5-0.1,3,0,4.4
		c0.1,1.3,0.5,2.6,2,2.6c1.8,0,2.2-1.2,2.2-2.8C117.6,12.9,117.6,12.1,117.6,11.4L117.6,11.4L117.6,11.4z"/>
	<path class="st0" d="M84.3,124.9c0,1.1,0.6,2.2,1.9,1.9c2.9-0.7,3.7-3.4,4.9-5.6c0.6-1.2-0.5-2.1-1.7-2.4
		C88.2,118.5,84.5,123,84.3,124.9z"/>
</g>
<g id="Fill_00000098196165229882926030000008462921992324098237_">
	<path class="st0" d="M108.7,59.8c-1.8,0.3-3.4,0.6-4.9,0.8c-8.4,1.4-15.6,5.1-21.9,10.7c-1.5,1.4-2.1,2.8-2,4.9
		c0.8,9.9,4.8,18.2,11.8,25.2c0.8,0.8,1.7,1.6,2.7,2.6c-6.2,3.1-11,7.2-14.7,12.5c-9.5,13.5-19.2,26.8-28.6,40.3
		c-1.9,2.7-3.7,3.4-6.8,2.7c-14.3-3.3-25.2-11.1-32.7-23.6c-1.4-2.3-1.4-4,0.2-6.3C23.5,113.4,35,97.1,46.6,80.8
		c8-11.2,12.1-23.7,12-37.5c-0.1-11.4,0.1-22.7-0.1-34.1c0-2.7,0.8-3.3,3.4-3.3c10.6,0.1,21.2-0.1,31.9,0c3.7,0,8.6-1.6,10.9,0.6
		c2.4,2.4,0.6,7.3,0.8,11.2C106.2,31.7,103.3,45.9,108.7,59.8L108.7,59.8z"/>
	<path class="st0" d="M108.7,64.2c1.6-0.4,2.8,0.5,3.7,2.6c5.3,12.1,0.5,27.2-10.8,34.1c-1.7,1.1-2.9,1.2-4.6-0.2
		c-7.4-6.1-11.5-13.9-12.9-23.3c-0.3-1.7,0.4-2.8,1.6-3.9C92.2,68,99.7,64.8,108.7,64.2z"/>
	<path class="st0" d="M7.1,136.8c8.7,15,21.3,23.9,38,27.3c-7.9,8.6-20.9,10-30.4,3.5C4.9,160.8,1.6,148.3,7.1,136.8z"/>
</g>
</svg>
